<svg width="31" height="31" viewBox="0 0 31 31" fill="none" xmlns="http://www.w3.org/2000/svg">
<path d="M19.75 4.25H17.75V10.25C17.75 11.75 18.25 15.75 17.75 16.75C17.25 17.75 17.25 24.75 17.25 25.75C17.25 26.55 17.9167 26.0833 18.25 25.75L20.25 25.25L20.75 23.25L23.75 22.75L25.25 23.75L26.75 21.75L26.25 20.75C26.5833 19.75 27.25 17.65 27.25 17.25C27.25 16.75 28.75 16.75 29.25 16.25C29.65 15.85 29.4167 14.0833 29.25 13.25L27.25 12.75L25.75 10.25L26.75 8.25L25.25 6.75C24.9167 6.91667 24.25 7.35 24.25 7.75C24.25 8.15 21.5833 7.25 20.25 6.75L19.75 4.25Z" fill="url(#paint0_linear)"/>
<path d="M17.25 4.75H1.25H0.75V23.75H17.25V4.75Z" fill="url(#paint1_linear)"/>
<path d="M30.0417 17.4722V13.0278L27.5764 12.7847C27.3658 12.016 27.0503 11.2799 26.6389 10.5972L28.2361 8.6875L25.1111 5.5625L23.2014 7.125C22.5012 6.73253 21.7547 6.42924 20.9792 6.22222L20.7708 3.75694H18.2014V3.0625C18.2014 2.31658 17.9051 1.60121 17.3776 1.07376C16.8502 0.546316 16.1348 0.25 15.3889 0.25H3.0625C2.31658 0.25 1.60121 0.546316 1.07376 1.07376C0.546316 1.60121 0.25 2.31658 0.25 3.0625V27.4375C0.25 28.1834 0.546316 28.8988 1.07376 29.4262C1.60121 29.9537 2.31658 30.25 3.0625 30.25H15.3889C16.1348 30.25 16.8502 29.9537 17.3776 29.4262C17.9051 28.8988 18.2014 28.1834 18.2014 27.4375V26.7431H20.7708L20.9792 24.2778C21.7547 24.0708 22.5012 23.7675 23.2014 23.375L25.1111 24.9375L28.2361 21.8125L26.6389 19.9028C27.0503 19.2201 27.3658 18.484 27.5764 17.7153L30.0417 17.4722ZM18.2014 10.7014H18.5486C19.1505 10.7014 19.7465 10.8199 20.3026 11.0503C20.8587 11.2806 21.3639 11.6182 21.7895 12.0438C22.2151 12.4694 22.5527 12.9747 22.7831 13.5308C23.0134 14.0868 23.1319 14.6828 23.1319 15.2847C23.1319 15.8866 23.0134 16.4826 22.7831 17.0387C22.5527 17.5948 22.2151 18.1 21.7895 18.5256C21.3639 18.9512 20.8587 19.2888 20.3026 19.5192C19.7465 19.7495 19.1505 19.8681 18.5486 19.8681H18.2014V10.7014ZM16.8125 23.0625H1.63889V5.77083H16.8125V23.0625ZM3.0625 1.63889H15.3889C15.7665 1.63889 16.1286 1.78888 16.3955 2.05585C16.6625 2.32283 16.8125 2.68493 16.8125 3.0625V4.38194H1.63889V3.0625C1.63889 2.68493 1.78888 2.32283 2.05586 2.05585C2.32283 1.78888 2.68494 1.63889 3.0625 1.63889ZM15.3889 28.8611H3.0625C2.68494 28.8611 2.32283 28.7111 2.05586 28.4441C1.78888 28.1772 1.63889 27.8151 1.63889 27.4375V24.4514H16.8125V27.4375C16.8125 27.8151 16.6625 28.1772 16.3955 28.4441C16.1286 28.7111 15.7665 28.8611 15.3889 28.8611ZM26.4306 16.3958L26.3264 16.9167C26.1258 17.8693 25.749 18.7761 25.2153 19.5903L24.9375 20.0069L26.3611 21.7431L25.0069 23.0625L23.3056 21.6389L22.8889 21.9167C22.0747 22.4504 21.1679 22.8272 20.2153 23.0278L19.6944 23.1319L19.4861 25.3542H18.2014V21.1875H18.5486C19.3329 21.1875 20.1095 21.033 20.8341 20.7329C21.5587 20.4328 22.217 19.9929 22.7716 19.4383C23.3262 18.8837 23.7661 18.2253 24.0662 17.5007C24.3664 16.7762 24.5208 15.9996 24.5208 15.2153C24.5208 14.431 24.3664 13.6544 24.0662 12.9298C23.7661 12.2052 23.3262 11.5469 22.7716 10.9923C22.217 10.4377 21.5587 9.9978 20.8341 9.69767C20.1095 9.39753 19.3329 9.24306 18.5486 9.24306H18.2014V5.07639H19.4861L19.6944 7.29861L20.2153 7.40278C21.1679 7.60333 22.0747 7.98017 22.8889 8.51389L23.3056 8.79167L25.0069 7.36806L26.3611 8.6875L24.9375 10.4236L25.2153 10.8403C25.749 11.6545 26.1258 12.5612 26.3264 13.5139L26.4306 14.0347L28.6528 14.2431V16.1181L26.4306 16.3958Z" fill="url(#paint2_linear)"/>
<path fill-rule="evenodd" clip-rule="evenodd" d="M30.2917 17.6988L27.7703 17.9474C27.5717 18.6211 27.2943 19.269 26.9438 19.8777L28.5746 21.8276L25.1279 25.2743L23.1737 23.6754C22.5508 24.0105 21.8937 24.2777 21.2136 24.4723L21.0006 26.9931H18.4514V27.4375C18.4514 28.2497 18.1287 29.0287 17.5544 29.603C16.9801 30.1773 16.2011 30.5 15.3889 30.5H3.0625C2.25028 30.5 1.47132 30.1773 0.896986 29.603C0.322655 29.0287 0 28.2497 0 27.4375V3.0625C0 2.25027 0.322655 1.47132 0.896986 0.896985C1.47132 0.322655 2.25027 0 3.0625 0H15.3889C16.2011 0 16.9801 0.322655 17.5544 0.896985C18.1287 1.47132 18.4514 2.25027 18.4514 3.0625V3.50694H21.0006L21.2136 6.02769C21.8937 6.2223 22.5508 6.48948 23.1737 6.8246L25.1279 5.22574L28.5746 8.67245L26.9438 10.6223C27.2943 11.231 27.5717 11.8789 27.7703 12.5526L30.2917 12.8012V17.6988ZM27.5764 12.7847C27.3658 12.016 27.0503 11.2799 26.6389 10.5972L28.2361 8.6875L25.1111 5.5625L23.2014 7.125C22.5012 6.73253 21.7547 6.42924 20.9792 6.22222L20.7708 3.75694H18.2014V3.0625C18.2014 2.31658 17.9051 1.60121 17.3776 1.07376C16.8502 0.546316 16.1348 0.25 15.3889 0.25H3.0625C2.31658 0.25 1.60121 0.546316 1.07376 1.07376C0.546316 1.60121 0.25 2.31658 0.25 3.0625V27.4375C0.25 28.1834 0.546316 28.8988 1.07376 29.4262C1.60121 29.9537 2.31658 30.25 3.0625 30.25H15.3889C16.1348 30.25 16.8502 29.9537 17.3776 29.4262C17.9051 28.8988 18.2014 28.1834 18.2014 27.4375V26.7431H20.7708L20.9792 24.2778C21.7547 24.0708 22.5012 23.7675 23.2014 23.375L25.1111 24.9375L28.2361 21.8125L26.6389 19.9028C27.0503 19.2201 27.3658 18.484 27.5764 17.7153L30.0417 17.4722V13.0278L27.5764 12.7847ZM26.2208 16.1701L28.4028 15.8974V14.4707L26.2219 14.2663L26.0818 13.5654C26.0817 13.565 26.0816 13.5646 26.0815 13.5642C25.8874 12.6427 25.5228 11.7657 25.0067 10.9781C25.0065 10.9778 25.0068 10.9783 25.0067 10.9781L24.6268 10.4082L26.0223 8.70642L24.9942 7.70469L23.3225 9.10344L22.7518 8.72297C22.7515 8.72277 22.7512 8.72256 22.7509 8.72236C21.9634 8.20627 21.0864 7.8418 20.165 7.64767C20.1646 7.64759 20.1642 7.6475 20.1638 7.64742L19.4629 7.50726L19.2585 5.32639H18.4514V8.99306H18.5486C19.3657 8.99306 20.1748 9.154 20.9298 9.46669C21.6847 9.77939 22.3706 10.2377 22.9484 10.8155C23.5262 11.3933 23.9845 12.0792 24.2972 12.8341C24.6099 13.5891 24.7708 14.3982 24.7708 15.2153C24.7708 16.0324 24.6099 16.8415 24.2972 17.5964C23.9845 18.3513 23.5262 19.0373 22.9484 19.6151C22.3706 20.1928 21.6847 20.6512 20.9298 20.9639C20.1748 21.2766 19.3657 21.4375 18.5486 21.4375H18.4514V25.1042H19.2585L19.4629 22.9233L20.1638 22.7831C20.1642 22.7831 20.1646 22.783 20.165 22.7829C21.0864 22.5888 21.9635 22.2242 22.7511 21.7081C22.7513 21.7079 22.7509 21.7082 22.7511 21.7081L23.3225 21.3271L24.9942 22.7259L26.0223 21.7241L24.6268 20.0223L25.0062 19.4532C25.0064 19.4529 25.0066 19.4527 25.0068 19.4524C25.5229 18.6648 25.8874 17.7878 26.0815 16.8664C26.0816 16.866 26.0817 16.8656 26.0818 16.8652L26.2208 16.1701ZM26.3264 16.9167C26.1258 17.8693 25.749 18.7761 25.2153 19.5903L24.9375 20.0069L26.3611 21.7431L25.0069 23.0625L23.3056 21.6389L22.8889 21.9167C22.0747 22.4504 21.1679 22.8272 20.2153 23.0278L19.6944 23.1319L19.4861 25.3542H18.2014V21.1875H18.5486C19.3329 21.1875 20.1095 21.033 20.8341 20.7329C21.5587 20.4328 22.217 19.9928 22.7716 19.4383C23.3262 18.8837 23.7661 18.2253 24.0662 17.5007C24.3664 16.7762 24.5208 15.9996 24.5208 15.2153C24.5208 14.431 24.3664 13.6544 24.0662 12.9298C23.7661 12.2052 23.3262 11.5469 22.7716 10.9923C22.217 10.4377 21.5587 9.9978 20.8341 9.69767C20.1095 9.39753 19.3329 9.24306 18.5486 9.24306H18.2014V5.07639H19.4861L19.6944 7.29861L20.2153 7.40278C21.1679 7.60333 22.0747 7.98017 22.8889 8.51389L23.3056 8.79167L25.0069 7.36806L26.3611 8.6875L24.9375 10.4236L25.2153 10.8403C25.749 11.6545 26.1258 12.5612 26.3264 13.5139L26.4306 14.0347L28.6528 14.2431V16.1181L26.4306 16.3958L26.3264 16.9167ZM18.5486 10.9514H18.4514V19.6181H18.5486C19.1177 19.6181 19.6812 19.506 20.2069 19.2882C20.7327 19.0704 21.2104 18.7512 21.6127 18.3489C22.0151 17.9465 22.3343 17.4688 22.5521 16.943C22.7699 16.4173 22.8819 15.8538 22.8819 15.2847C22.8819 14.7157 22.7699 14.1522 22.5521 13.6264C22.3343 13.1007 22.0151 12.623 21.6127 12.2206C21.2104 11.8182 20.7327 11.499 20.2069 11.2812C19.6812 11.0635 19.1177 10.9514 18.5486 10.9514ZM1.88889 22.8125H16.5625V6.02083H1.88889V22.8125ZM15.3889 1.88889H3.0625C2.75124 1.88889 2.45273 2.01254 2.23263 2.23263C2.01254 2.45273 1.88889 2.75124 1.88889 3.0625V4.13194H16.5625V3.0625C16.5625 2.75124 16.4389 2.45273 16.2188 2.23263C15.9987 2.01254 15.7002 1.88889 15.3889 1.88889ZM3.0625 28.6111H15.3889C15.7002 28.6111 15.9987 28.4875 16.2188 28.2674C16.4389 28.0473 16.5625 27.7488 16.5625 27.4375V24.7014H1.88889V27.4375C1.88889 27.7488 2.01254 28.0473 2.23263 28.2674C2.45273 28.4875 2.75124 28.6111 3.0625 28.6111ZM18.2014 10.7014V19.8681H18.5486C19.1505 19.8681 19.7465 19.7495 20.3026 19.5192C20.8587 19.2888 21.3639 18.9512 21.7895 18.5256C22.2151 18.1 22.5527 17.5948 22.7831 17.0387C23.0134 16.4826 23.1319 15.8866 23.1319 15.2847C23.1319 14.6828 23.0134 14.0868 22.7831 13.5308C22.5527 12.9747 22.2151 12.4694 21.7895 12.0438C21.3639 11.6182 20.8587 11.2806 20.3026 11.0503C19.7465 10.8199 19.1505 10.7014 18.5486 10.7014H18.2014ZM16.8125 23.0625V5.77083H1.63889V23.0625H16.8125ZM15.3889 1.63889H3.0625C2.68494 1.63889 2.32283 1.78888 2.05586 2.05585C1.78888 2.32283 1.63889 2.68493 1.63889 3.0625V4.38194H16.8125V3.0625C16.8125 2.68493 16.6625 2.32283 16.3955 2.05585C16.1286 1.78888 15.7665 1.63889 15.3889 1.63889ZM3.0625 28.8611H15.3889C15.7665 28.8611 16.1286 28.7111 16.3955 28.4441C16.6625 28.1772 16.8125 27.8151 16.8125 27.4375V24.4514H1.63889V27.4375C1.63889 27.8151 1.78888 28.1772 2.05586 28.4441C2.32283 28.7111 2.68494 28.8611 3.0625 28.8611Z" fill="url(#paint3_linear)"/>
<defs>
<linearGradient id="paint0_linear" x1="24.7131" y1="-6.12784" x2="24.7131" y2="34.1975" gradientUnits="userSpaceOnUse">
<stop stop-color="#C7DAFD"/>
<stop offset="1" stop-color="#E9F1FF"/>
</linearGradient>
<linearGradient id="paint1_linear" x1="10.8263" y1="-4.23649" x2="10.8263" y2="30.6824" gradientUnits="userSpaceOnUse">
<stop stop-color="#C7DAFD"/>
<stop offset="1" stop-color="#E9F1FF"/>
</linearGradient>
<linearGradient id="paint2_linear" x1="0.25" y1="0.25" x2="22.8052" y2="33.3924" gradientUnits="userSpaceOnUse">
<stop stop-color="#2569E6"/>
<stop offset="1" stop-color="#3649EF"/>
</linearGradient>
<linearGradient id="paint3_linear" x1="0" y1="0" x2="22.9302" y2="33.6972" gradientUnits="userSpaceOnUse">
<stop stop-color="#2569E6"/>
<stop offset="1" stop-color="#3649EF"/>
</linearGradient>
</defs>
</svg>
