<svg xmlns="http://www.w3.org/2000/svg" width="113.334" height="38" viewBox="0 0 113.334 38">
  <g id="Logo-WhiteBackground" transform="translate(0 0)">
    <path id="tk" d="M4.709,37.581A5.393,5.393,0,0,1,2.583,36.52a4.441,4.441,0,0,1-1.292-1.853,7.7,7.7,0,0,1-.431-2.739q0-.3.028-.685t.1-.819q.069-.429.139-.873t.153-.792L3.695,17.079h-3a.609.609,0,0,1-.528-.228A1.591,1.591,0,0,1,0,15.978a9.533,9.533,0,0,1,.1-1.195,8.6,8.6,0,0,1,.32-1.45A4.335,4.335,0,0,1,1,12.111a1.042,1.042,0,0,1,.861-.51H4.834L5.945,6.257a.97.97,0,0,1,.264-.483,1.611,1.611,0,0,1,.639-.362A5.046,5.046,0,0,1,7.959,5.2q.68-.067,1.708-.067,1,0,1.667.067a3.867,3.867,0,0,1,1.028.215.957.957,0,0,1,.486.362.664.664,0,0,1,.069.483L11.806,11.6h5.362a.669.669,0,0,1,.639.3,1.781,1.781,0,0,1,.167.859,5.4,5.4,0,0,1-.056.685q-.056.417-.153.9a7.563,7.563,0,0,1-.264.967,5.981,5.981,0,0,1-.375.873,2.58,2.58,0,0,1-.472.645.809.809,0,0,1-.569.255H10.667L8.334,28.33q-.083.4-.153.953a7.464,7.464,0,0,0-.069.9,2.068,2.068,0,0,0,.528,1.571,2.369,2.369,0,0,0,1.667.5,5.907,5.907,0,0,0,1.139-.094,6.182,6.182,0,0,0,.82-.215q.347-.121.6-.215a1.347,1.347,0,0,1,.472-.094.457.457,0,0,1,.375.2,1.106,1.106,0,0,1,.153.658,6.887,6.887,0,0,1-.111,1.155,10.758,10.758,0,0,1-.292,1.249,9.1,9.1,0,0,1-.4,1.1,2.38,2.38,0,0,1-.472.738,2.5,2.5,0,0,1-.75.457,7.2,7.2,0,0,1-1.181.376,13.32,13.32,0,0,1-1.458.255,13,13,0,0,1-1.556.094A11.482,11.482,0,0,1,4.709,37.581Zm29.413-.094a4.286,4.286,0,0,1-1.056-.188,1.26,1.26,0,0,1-.556-.349,1.339,1.339,0,0,1-.264-.537L26.385,23.792,23.774,36.467a1.1,1.1,0,0,1-.292.47,1.6,1.6,0,0,1-.639.336,5.742,5.742,0,0,1-1.125.2q-.695.067-1.695.067-1.028,0-1.681-.067a4.933,4.933,0,0,1-1.014-.188.87.87,0,0,1-.486-.322.619.619,0,0,1-.069-.47L24.107,1.155a1.019,1.019,0,0,1,.25-.483A1.485,1.485,0,0,1,25,.309,5.818,5.818,0,0,1,26.121.081,14.964,14.964,0,0,1,27.83,0,14.228,14.228,0,0,1,29.51.081a4.133,4.133,0,0,1,1.014.228A.877.877,0,0,1,31,.671a.713.713,0,0,1,.056.483L26.718,22.181,36,12.594a3.383,3.383,0,0,1,.6-.55,2.541,2.541,0,0,1,.819-.363,6.7,6.7,0,0,1,1.208-.188q.708-.054,1.764-.054,1.027,0,1.722.054a5.188,5.188,0,0,1,1.083.175,1.115,1.115,0,0,1,.542.309.664.664,0,0,1,.153.43,1.933,1.933,0,0,1-.375,1.007,10.478,10.478,0,0,1-1.236,1.463l-8.751,7.975L39.219,34.4a6.769,6.769,0,0,1,.389,1.128,3.622,3.622,0,0,1,.111.752.917.917,0,0,1-.18.564,1.32,1.32,0,0,1-.611.4,4.644,4.644,0,0,1-1.167.228q-.736.067-1.847.067T34.122,37.487Z" transform="translate(0 0)"/>
    <path id="xel" d="M32.751,37.463a8.7,8.7,0,0,1-3.32-1.638,6.752,6.752,0,0,1-2-2.806,11.083,11.083,0,0,1-.667-4.042,23.172,23.172,0,0,1,.347-3.854,20.666,20.666,0,0,1,1.125-4.055,19.681,19.681,0,0,1,2-3.827,13.97,13.97,0,0,1,6.973-5.425,15.082,15.082,0,0,1,5.195-.832,14.465,14.465,0,0,1,4.348.577,8.967,8.967,0,0,1,2.986,1.531,6.185,6.185,0,0,1,1.736,2.175,5.887,5.887,0,0,1,.569,2.511,6.764,6.764,0,0,1-.9,3.478,7.573,7.573,0,0,1-2.806,2.659A15.719,15.719,0,0,1,43.5,25.62a35.831,35.831,0,0,1-6.987.591H33.96q-.111.618-.167,1.222t-.056,1.114A4.3,4.3,0,0,0,34.9,31.823a5.34,5.34,0,0,0,3.75,1.1,19.188,19.188,0,0,0,3.292-.255,26.142,26.142,0,0,0,2.556-.564q1.1-.308,1.82-.564a3.637,3.637,0,0,1,1.056-.255.55.55,0,0,1,.472.188,1,1,0,0,1,.139.591,7.583,7.583,0,0,1-.083,1.047,10.089,10.089,0,0,1-.236,1.168,6.628,6.628,0,0,1-.389,1.088,2.314,2.314,0,0,1-.542.779,3.6,3.6,0,0,1-1.222.644,16.537,16.537,0,0,1-2.139.591q-1.25.268-2.806.443A28.428,28.428,0,0,1,37.4,38,17.937,17.937,0,0,1,32.751,37.463Zm6.528-21.189a6.418,6.418,0,0,0-1.931,1.3,7.962,7.962,0,0,0-1.431,1.934,11.978,11.978,0,0,0-.958,2.377h2.333a20.622,20.622,0,0,0,3.723-.282,8.694,8.694,0,0,0,2.417-.765A3.4,3.4,0,0,0,44.766,19.7a2.587,2.587,0,0,0,.417-1.41,2.21,2.21,0,0,0-.875-1.786,3.947,3.947,0,0,0-2.542-.712A6.106,6.106,0,0,0,39.279,16.274Zm15.051,21.2a4.283,4.283,0,0,1-1.014-.2.929.929,0,0,1-.486-.336.62.62,0,0,1-.069-.47L60.067,1.155a1.018,1.018,0,0,1,.25-.483,1.484,1.484,0,0,1,.639-.363A5.817,5.817,0,0,1,62.081.081,14.96,14.96,0,0,1,63.789,0,14.227,14.227,0,0,1,65.47.081a4.135,4.135,0,0,1,1.014.228.877.877,0,0,1,.472.363.712.712,0,0,1,.056.483L59.734,36.469a.9.9,0,0,1-.264.47,1.6,1.6,0,0,1-.625.336,5.448,5.448,0,0,1-1.111.2q-.695.067-1.695.067Q54.983,37.543,54.33,37.476Zm-35.616.014a5.349,5.349,0,0,1-1.028-.161.851.851,0,0,1-.486-.3,1.285,1.285,0,0,1-.18-.43l-3-8.459L7.741,36.63a2.073,2.073,0,0,1-.375.416,1.662,1.662,0,0,1-.695.282,9.059,9.059,0,0,1-1.278.161q-.792.053-2.125.054-1.195,0-1.917-.067A3,3,0,0,1,.3,37.235Q-.037,37.06,0,36.778a2,2,0,0,1,.347-.739L9.769,24.116,5.63,13.052a1.63,1.63,0,0,1-.111-.792.709.709,0,0,1,.431-.5,3.393,3.393,0,0,1,1.167-.255q.792-.067,2.1-.067,1.139,0,1.792.04a6.487,6.487,0,0,1,1,.121.775.775,0,0,1,.472.255,1.556,1.556,0,0,1,.208.443l2.889,8,5.973-8a2.38,2.38,0,0,1,.361-.376,1.6,1.6,0,0,1,.611-.268,6.653,6.653,0,0,1,1.083-.161q.667-.054,1.806-.054,1.277,0,2.042.054a3.557,3.557,0,0,1,1.125.215q.361.161.32.443a1.939,1.939,0,0,1-.4.765L19.881,24.062l4.445,11.924a1.365,1.365,0,0,1,.056.752.814.814,0,0,1-.514.483,4.054,4.054,0,0,1-1.236.255q-.806.067-2.083.067Q19.381,37.543,18.714,37.49Z" transform="translate(36.526 0)" fill="#2569e6"/>
    <g id="R" transform="translate(106.204 0.065)">
      <g id="Ellipse_1" data-name="Ellipse 1" fill="none" stroke="#2569e6" stroke-width="0.5">
        <circle cx="3.565" cy="3.565" r="3.565" stroke="none"/>
        <circle cx="3.565" cy="3.565" r="3.315" fill="none"/>
      </g>
      <path id="R-2" data-name="R" d="M928.779,273.469a.186.186,0,0,1-.009-.043.193.193,0,0,0-.009-.043.327.327,0,0,1-.015-.072c0-.026-.006-.051-.011-.076a.093.093,0,0,1,0-.032.073.073,0,0,0,0-.028.159.159,0,0,1,0-.059.139.139,0,0,0,0-.056v-.033a.122.122,0,0,1,0-.052.124.124,0,0,0,0-.052l-.007-.058-.007-.058q-.019-.074-.037-.139a.339.339,0,0,0-.059-.117.31.31,0,0,0-.061-.071.724.724,0,0,0-.076-.056.249.249,0,0,1-.035-.022.036.036,0,0,1-.017-.037.058.058,0,0,1,.019-.035.228.228,0,0,1,.033-.024.628.628,0,0,0,.056-.039l.056-.043.017-.019.017-.019.007-.006.007-.006a.23.23,0,0,1,.024-.033.228.228,0,0,0,.024-.033.4.4,0,0,0,.046-.095l.035-.106a.258.258,0,0,0,.009-.052.327.327,0,0,1,.009-.056v-.041a.374.374,0,0,0,.006-.043.162.162,0,0,0,0-.043v-.037a.326.326,0,0,1-.009-.061.338.338,0,0,0-.009-.061.872.872,0,0,0-.095-.214.526.526,0,0,0-.15-.154.625.625,0,0,0-.111-.063,1.325,1.325,0,0,0-.13-.048.5.5,0,0,0-.061-.011.472.472,0,0,1-.061-.011l-.048-.006-.045-.006h-.041a.234.234,0,0,0-.052,0l-.056,0h-1.077a.021.021,0,0,1-.015,0,.021.021,0,0,0-.015,0,.109.109,0,0,0-.056.037.111.111,0,0,0-.017.071q0,.045,0,.085v2.356a.074.074,0,0,0,.03.069.118.118,0,0,0,.065.02l.08,0,.037,0a.1.1,0,0,0,.033,0,.089.089,0,0,1,.032-.007.062.062,0,0,0,.028-.007.045.045,0,0,0,.03-.033.238.238,0,0,0,.015-.113q0-.076,0-.128v-.538q0-.063,0-.147a.207.207,0,0,1,.024-.121.067.067,0,0,1,.035-.024l.046-.013h.683l.121,0a.324.324,0,0,1,.106.02.369.369,0,0,1,.234.208.48.48,0,0,1,.035.126,1.021,1.021,0,0,0,.028.134.231.231,0,0,1,.007.056.188.188,0,0,0,.007.052l.011.167v.045a.268.268,0,0,0,0,.045.061.061,0,0,1,0,.03.053.053,0,0,0,0,.033v.024a.113.113,0,0,0,0,.028c0,.027.01.054.017.08a.088.088,0,0,0,.039.058.148.148,0,0,0,.093.026h.119l.058,0a.1.1,0,0,0,.046-.013.059.059,0,0,0,.015-.074Zm-.564-1.318a.717.717,0,0,1-.21.061,1.64,1.64,0,0,1-.254.015l-.282,0h-.23a.55.55,0,0,1-.082-.006.079.079,0,0,1-.056-.032.144.144,0,0,1-.024-.095q0-.061,0-.117v-.427q0-.048,0-.108a.218.218,0,0,1,.013-.093.08.08,0,0,1,.059-.048.067.067,0,0,1,.02,0,.037.037,0,0,0,.017,0h.613q.1,0,.2,0a.518.518,0,0,1,.173.033.391.391,0,0,1,.234.256.473.473,0,0,1,.022.1.344.344,0,0,1,0,.113v.033c-.007.035-.016.067-.024.1a.336.336,0,0,1-.039.085A.352.352,0,0,1,928.214,272.151Z" transform="translate(-924.189 -268.656)" fill="#2569e6"/>
    </g>
  </g>
</svg>
