<svg width="184" height="45" viewBox="0 0 184 45" fill="none" xmlns="http://www.w3.org/2000/svg">
<path d="M31.2644 31.6837C28.9655 33.5204 25.7471 34.898 22.5287 34.898C15.1724 34.898 10.1149 29.3878 10.1149 22.0408C10.1149 14.6939 15.1724 9.64285 22.5287 9.64285C25.7471 9.64285 28.9655 10.5612 31.2644 12.8571L32.6437 14.2347L40 7.34693L38.1609 5.96938C34.023 2.29591 28.5058 0 22.5287 0C9.65518 0 0 9.64286 0 22.5C0 35.3571 9.65518 45 22.5287 45C28.5058 45 34.023 42.7041 38.1609 39.0306L40 37.6531L32.6437 30.3061L31.2644 31.6837Z" fill="#17313B"/>
<path d="M22.0673 29.8462C26.1301 29.8462 29.4236 26.5569 29.4236 22.4993C29.4236 18.4417 26.1301 15.1523 22.0673 15.1523C18.0045 15.1523 14.7109 18.4417 14.7109 22.4993C14.7109 26.5569 18.0045 29.8462 22.0673 29.8462Z" fill="#EF4335"/>
<path d="M62.8155 21.2437C62.978 20.8118 63.5889 20.8118 63.7514 21.2437L66.1832 27.7062C66.2545 27.8959 66.4333 28.0237 66.6358 28.0299L73.7575 28.2479C74.231 28.2624 74.4208 28.8659 74.0407 29.1488L68.4479 33.3107C68.2788 33.4365 68.2068 33.6548 68.2678 33.8566L70.247 40.3976C70.382 40.8439 69.8866 41.2158 69.4958 40.9615L63.5561 37.0974C63.3903 36.9895 63.1766 36.9895 63.0108 37.0974L57.0712 40.9615C56.6803 41.2158 56.1849 40.8439 56.3199 40.3976L58.2991 33.8566C58.3601 33.6548 58.2881 33.4365 58.119 33.3107L52.5262 29.1488C52.1461 28.8659 52.3359 28.2624 52.8094 28.2479L59.9311 28.0299C60.1336 28.0237 60.3124 27.8959 60.3838 27.7062L62.8155 21.2437Z" fill="#EF4335"/>
<path d="M89.2914 21.3044C89.4502 20.8638 90.0732 20.8638 90.2321 21.3044L92.5385 27.7003C92.608 27.8931 92.7881 28.0239 92.9929 28.0305L99.7885 28.2475C100.257 28.2625 100.449 28.855 100.079 29.1422L94.709 33.3122C94.5472 33.4379 94.4784 33.6496 94.5354 33.8464L96.429 40.3765C96.5594 40.8263 96.0554 41.1924 95.6679 40.9294L90.0425 37.1106C89.873 36.9956 89.6504 36.9956 89.4809 37.1106L83.8555 40.9294C83.4681 41.1924 82.964 40.8263 83.0945 40.3765L84.988 33.8464C85.0451 33.6496 84.9763 33.4379 84.8144 33.3122L79.4442 29.1422C79.0743 28.855 79.2669 28.2625 79.7349 28.2475L86.5306 28.0305C86.7354 28.0239 86.9154 27.8931 86.985 27.7003L89.2914 21.3044Z" fill="#EF4335"/>
<path d="M116.864 21.1358C117.033 20.7208 117.621 20.7208 117.79 21.1358L120.473 27.7178C120.548 27.9012 120.724 28.0232 120.922 28.0288L128.695 28.2485C129.178 28.2621 129.363 28.8864 128.964 29.1604L122.925 33.3083C122.742 33.434 122.664 33.6653 122.733 33.8762L124.882 40.4329C125.027 40.8729 124.547 41.2557 124.15 41.0173L117.584 37.0746C117.426 36.9794 117.228 36.9794 117.07 37.0746L110.504 41.0173C110.107 41.2557 109.627 40.8729 109.772 40.4329L111.921 33.8762C111.99 33.6653 111.912 33.434 111.729 33.3083L105.69 29.1604C105.291 28.8864 105.475 28.2621 105.959 28.2485L113.732 28.0288C113.93 28.0232 114.106 27.9012 114.181 27.7178L116.864 21.1358Z" fill="#EF4335"/>
<path d="M144.291 21.3044C144.45 20.8638 145.073 20.8638 145.232 21.3044L147.538 27.7003C147.608 27.8931 147.788 28.0239 147.993 28.0305L154.789 28.2475C155.257 28.2625 155.449 28.855 155.079 29.1422L149.709 33.3122C149.547 33.4379 149.478 33.6496 149.535 33.8464L151.429 40.3765C151.559 40.8263 151.055 41.1924 150.668 40.9294L145.043 37.1106C144.873 36.9956 144.65 36.9956 144.481 37.1106L138.855 40.9294C138.468 41.1924 137.964 40.8263 138.094 40.3765L139.988 33.8464C140.045 33.6496 139.976 33.4379 139.814 33.3122L134.444 29.1422C134.074 28.855 134.267 28.2625 134.735 28.2475L141.531 28.0305C141.735 28.0239 141.915 27.8931 141.985 27.7003L144.291 21.3044Z" fill="#EF4335"/>
<path d="M170.815 21.2437C170.978 20.8118 171.589 20.8118 171.751 21.2437L174.183 27.7062C174.255 27.8959 174.433 28.0237 174.636 28.0299L181.758 28.2479C182.231 28.2624 182.421 28.8659 182.041 29.1488L176.448 33.3107C176.279 33.4365 176.207 33.6548 176.268 33.8566L178.247 40.3976C178.382 40.8439 177.887 41.2158 177.496 40.9615L171.556 37.0974C171.39 36.9895 171.177 36.9895 171.011 37.0974L165.071 40.9615C164.68 41.2158 164.185 40.8439 164.32 40.3976L166.299 33.8566C166.36 33.6548 166.288 33.4365 166.119 33.3107L160.526 29.1488C160.146 28.8659 160.336 28.2624 160.809 28.2479L167.931 28.0299C168.134 28.0237 168.312 27.8959 168.384 27.7062L170.815 21.2437Z" fill="#EF4335"/>
<path d="M56.5685 11L55.1424 8.32022H54.3002V11H53.1422V4.21441H55.7454C56.3834 4.21441 56.8971 4.4122 57.2863 4.80779C57.6755 5.197 57.8701 5.6851 57.8701 6.2721C57.8701 6.75701 57.7329 7.17174 57.4585 7.51628C57.1842 7.86083 56.8109 8.09052 56.3388 8.20537L57.8701 11H56.5685ZM54.3002 7.30573H55.5348C55.8858 7.30573 56.1665 7.21321 56.377 7.02818C56.594 6.83677 56.7024 6.58474 56.7024 6.2721C56.7024 5.95308 56.594 5.70105 56.377 5.51602C56.1665 5.32461 55.8858 5.2289 55.5348 5.2289H54.3002V7.30573ZM63.2877 11H59.0958V4.21441H63.2877V5.28632H60.2443V7.0856H63.0006V8.12881H60.2443V9.92809H63.2877V11ZM67.1063 9.49741L69.0108 4.21441H70.2263L67.6614 11H66.4937L63.9671 4.21441H65.2113L67.1063 9.49741ZM72.3015 11H71.1339V4.21441H72.3015V11ZM78.1204 11H73.9284V4.21441H78.1204V5.28632H75.0769V7.0856H77.8332V8.12881H75.0769V9.92809H78.1204V11ZM85.7959 9.21029L87.1262 4.21441H88.313L86.4084 11H85.2216L83.5755 5.87013L81.9293 11H80.7521L78.8284 4.21441H80.0343L81.3934 9.17201L82.9821 4.21441H84.1784L85.7959 9.21029ZM93.439 11H89.2471V4.21441H93.439V5.28632H90.3955V7.0856H93.1519V8.12881H90.3955V9.92809H93.439V11ZM95.966 9.94723H97.1719C97.7971 9.94723 98.3108 9.74944 98.7127 9.35385C99.1211 8.95188 99.3253 8.37445 99.3253 7.62156C99.3253 6.86229 99.1243 6.28167 98.7223 5.8797C98.3203 5.47136 97.8067 5.26718 97.1814 5.26718H95.966V9.94723ZM97.2101 11H94.8175V4.21441H97.2197C98.1768 4.21441 98.9648 4.51748 99.5837 5.12362C100.209 5.72976 100.522 6.56241 100.522 7.62156C100.522 8.67433 100.209 9.5006 99.5837 10.1004C98.9584 10.7001 98.1672 11 97.2101 11ZM105.534 5.80314C105.087 6.23063 104.864 6.83039 104.864 7.60242C104.864 8.37445 105.087 8.9774 105.534 9.41127C105.981 9.83876 106.513 10.0525 107.132 10.0525C107.751 10.0525 108.284 9.83876 108.731 9.41127C109.184 8.9774 109.41 8.37445 109.41 7.60242C109.41 6.83039 109.184 6.23063 108.731 5.80314C108.284 5.36927 107.751 5.15233 107.132 5.15233C106.513 5.15233 105.981 5.36927 105.534 5.80314ZM104.175 9.49741C103.85 8.94869 103.687 8.31703 103.687 7.60242C103.687 6.88781 103.85 6.25934 104.175 5.717C104.507 5.16828 104.931 4.75675 105.448 4.48239C105.965 4.20803 106.526 4.07085 107.132 4.07085C107.738 4.07085 108.3 4.20803 108.817 4.48239C109.334 4.75675 109.758 5.16828 110.09 5.717C110.421 6.25934 110.587 6.88781 110.587 7.60242C110.587 8.31703 110.421 8.94869 110.09 9.49741C109.758 10.0461 109.334 10.4577 108.817 10.732C108.3 11.0064 107.738 11.1436 107.132 11.1436C106.526 11.1436 105.965 11.0064 105.448 10.732C104.931 10.4577 104.507 10.0461 104.175 9.49741ZM117.494 11H116.298L112.948 5.86056V11H111.8V4.21441H113.264L116.346 9.02845V4.21441H117.494V11ZM124.507 11.1436C123.556 11.1436 122.746 10.8213 122.076 10.1769C121.412 9.5325 121.08 8.67752 121.08 7.61199C121.08 6.55284 121.419 5.69786 122.095 5.04706C122.771 4.39625 123.572 4.07085 124.497 4.07085C125.314 4.07085 125.984 4.27821 126.507 4.69294C127.037 5.10767 127.384 5.63406 127.55 6.2721L126.469 6.63578C126.36 6.19553 126.14 5.83823 125.808 5.56387C125.477 5.28951 125.039 5.15233 124.497 5.15233C123.891 5.15233 123.365 5.36927 122.918 5.80314C122.478 6.23063 122.258 6.83358 122.258 7.61199C122.258 8.37126 122.478 8.96783 122.918 9.4017C123.358 9.82919 123.888 10.0429 124.507 10.0429C125.036 10.0429 125.473 9.89938 125.818 9.61226C126.162 9.32514 126.398 8.97102 126.526 8.54991L127.579 8.89446C127.413 9.52612 127.062 10.0589 126.526 10.4928C125.997 10.9266 125.323 11.1436 124.507 11.1436ZM133.004 11H128.745V4.21441H129.893V9.90895H133.004V11ZM138.228 10.4832C137.756 10.9234 137.15 11.1436 136.41 11.1436C135.67 11.1436 135.064 10.9234 134.592 10.4832C134.119 10.0429 133.883 9.42722 133.883 8.63605V4.21441H135.022V8.56906C135.022 9.04121 135.144 9.40808 135.386 9.66968C135.635 9.9249 135.976 10.0525 136.41 10.0525C136.85 10.0525 137.192 9.9249 137.434 9.66968C137.677 9.41446 137.798 9.04759 137.798 8.56906V4.21441H138.946V8.63605C138.946 9.42722 138.707 10.0429 138.228 10.4832ZM145.383 5.29589H143.172V11H142.024V5.29589H139.823V4.21441H145.383V5.29589ZM149.125 11.1436C148.174 11.1436 147.364 10.8213 146.694 10.1769C146.03 9.5325 145.699 8.67752 145.699 7.61199C145.699 6.55284 146.037 5.69786 146.713 5.04706C147.389 4.39625 148.19 4.07085 149.115 4.07085C149.932 4.07085 150.602 4.27821 151.125 4.69294C151.655 5.10767 152.002 5.63406 152.168 6.2721L151.087 6.63578C150.978 6.19553 150.758 5.83823 150.427 5.56387C150.095 5.28951 149.658 5.15233 149.115 5.15233C148.509 5.15233 147.983 5.36927 147.536 5.80314C147.096 6.23063 146.876 6.83358 146.876 7.61199C146.876 8.37126 147.096 8.96783 147.536 9.4017C147.976 9.82919 148.506 10.0429 149.125 10.0429C149.654 10.0429 150.092 9.89938 150.436 9.61226C150.781 9.32514 151.017 8.97102 151.144 8.54991L152.197 8.89446C152.031 9.52612 151.68 10.0589 151.144 10.4928C150.615 10.9266 149.942 11.1436 149.125 11.1436ZM158.856 11H157.698V8.10009H154.511V11H153.363V4.21441H154.511V7.01861H157.698V4.21441H158.856V11Z" fill="#17313B"/>
</svg>
